<?xml version="1.0" encoding="utf-8"?>
<!-- Generator: Adobe Illustrator 23.1.0, SVG Export Plug-In . SVG Version: 6.00 Build 0)  -->
<svg version="1.1" id="Layer_1" xmlns="http://www.w3.org/2000/svg" xmlns:xlink="http://www.w3.org/1999/xlink" x="0px" y="0px"
	 viewBox="0 0 841.9 310" style="enable-background:new 0 0 841.9 310;" xml:space="preserve">
<style type="text/css">
	.st0{fill:#FFFFFF;}
	.st1{fill:none;stroke:#000000;stroke-width:0.5;stroke-miterlimit:10;}
	.st2{fill:none;stroke:#000000;stroke-width:0.25;stroke-miterlimit:10;}
</style>
<path class="st0" d="M28.9,278.4v-14.5c0,0,45.4,7.4,101.7-53.3c5.7-6.1,14.3-12.5,20.2-18.3l94.4-93.7c3.5-3.4,6.7-7,9.9-10.7
	c12.2-14.1,53-56.7,100.8-53.5v14.5c0,0-16.8-2.3-29.5,13.7c-6.3,7.9-9.3,17.9-9.3,28v152.7c0,2.2-0.3,19.8-0.3,22c0,0,0,0,20.1,0
	l0.8,13h-89.2l-0.8-165.2L119.6,240.2C119.6,240.2,77.6,280.4,28.9,278.4z"/>
<path class="st1" d="M804.1,278.7"/>
<path d="M332.2,278.7"/>
<path class="st1" d="M807.3,329.3"/>
<g>
	<path class="st0" d="M332.2,265.4l0.8,13c0,0,60.6,3,138.6-28.4v-13C431,254.4,385.4,262,332.2,265.4z"/>
	<path class="st0" d="M738.4,256.3c-7.7-3.9-12.5-15.3-12.5-23.9V90.7c0-10.1,0.4-16.1,9.3-28C750.8,41.8,807.3,49,807.3,49V34.5
		C720.5,24.6,676.2,73.8,664,88c-3.2,3.7-6.5,7.2-9.9,10.7l-31.7,31.5c0,0-44.1,46.9-115.6,89.7v14c39.7-20.5,82.1-50.3,122.1-93.7
		l0,0l27.7-27l0.8,165.2h150.4v-14.5C771.1,265.3,749.3,261.8,738.4,256.3z"/>
	<path class="st0" d="M471.6,263.8h-30.1v14.9H537v-14.9h-30.1v-30c-12,6.2-23.8,11.5-35.2,16.1L471.6,263.8L471.6,263.8z"/>
	<path class="st0" d="M506.8,43.6h16c37.8,0,49.7,27.2,53.7,61.7h9.4l-2.5-70.1h-187l-4,70.1h9.4c6.9-36,10.5-61.7,45-61.7h24.7V237
		c12.4-5.3,24.1-11.1,35.2-17.2L506.8,43.6L506.8,43.6z"/>
</g>
<path class="st2" d="M807.7,263.9"/>
<path class="st2" d="M807.7,278.4"/>
</svg>
